<?xml version="1.0" encoding="utf-8"?>
<?xml-stylesheet type="text/xsl" href="rss1.xsl"?>
<rss version="2.0" xmlns:atom="http://www.w3.org/2005/Atom" xmlns:content="http://purl.org/rss/1.0/modules/content/" xmlns:dc="http://purl.org/dc/elements/1.1/" xmlns:media="http://search.yahoo.com/mrss/">
<channel>
 <title>Getty</title>
 <link>http://www.gettyimg.com/</link>
 <atom:link href="http://www.gettyimg.com/" rel="self" type="application/rss+xml" />

 
                <item>
                <title><![CDATA[【Cinema Center】MOVIE - IMAX: Fighter Pilot Operation Red Flag (1080p) (DTS-HD) (MA) (5.1) (Bluray) (Remux) (2004) [MAVERICK]]]></title>
                <link><![CDATA[https://sharemania.us/threads/imax-fighter-pilot-operation-red-flag-1080p-dts-hd-ma-5-1-bluray-remux-2004-maverick.223848/]]></link>
                <description><![CDATA[<article>
<blockquote class="messageText SelectQuoteContainer ugc baseHtml">
<img src="https://airandspace.si.edu/sites/default/files/images/WEB11354-2010_640.jpg" class="bbCodeImage LbImage" alt="[​IMG]" data-url="https://airandspace.si.edu/sites/default/files/images/WEB11354-2010_640.jpg" style=""><br>
<b>Plot:</b> Experience final training for pilots and their aircrews before being sent into actual combat. Follow pilot, John Stratton, as he makes his way through this extraordinary event held in the desert of Nevada.<br>
<img src="https://i.postimg.cc/pXp6FPQf/IMAX-Fighter-Pilot-Operation-Red-Flag-1080p-DTS-HD-MA-5-1-Bluray-Remux-2004-MAVERICK.jpg" class="bbCodeImage LbImage" alt="[​IMG]" data-url="https://i.postimg.cc/pXp6FPQf/IMAX-Fighter-Pilot-Operation-Red-Flag-1080p-DTS-HD-MA-5-1-Bluray-Remux-2004-MAVERICK.jpg" style="">
<div class="ToggleTriggerAnchor bbCodeSpoilerContainer">
<button type="button" class="button bbCodeSpoilerButton ToggleTrigger Tooltip JsOnly" data-target="> .SpoilerTarget"><span>Spoiler: <span class="SpoilerTitle">IMDB:</span></span></button>
<div class="SpoilerTarget bbCodeSpoilerText"><a href="https://www.imdb.com/title/tt0353168/" target="_blank" class="externalLink" rel="nofollow">https://www.imdb.com/title/tt0353168/</a></div>
</div>
<div class="ToggleTriggerAnchor bbCodeSpoilerContainer">
<button type="button" class="button bbCodeSpoilerButton ToggleTrigger Tooltip JsOnly" data-target="> .SpoilerTarget"><span>Spoiler: <span class="SpoilerTitle">Media Info:</span></span></button>
<div class="SpoilerTarget bbCodeSpoilerText">General<br>
Complete name : C:\Users\Maverick\Desktop\IMAX: Fighter Pilot Operation Red Flag (1080p) (DTS-HD) (MA) (5.1) (Bluray) (Remux) (2004) [MAVERICK].mkv<br>
Format : Matroska<br>
Format version : Version 4<br>
File size : 6.96 GiB<br>
Duration : 48 min 26 s<br>
Overall bit rate mode : Variable<br>
Overall bit rate : 20.6 Mb/s<br>
Movie name : IMAX: Fighter Pilot Operation Red Flag (1080p) (DTS-HD) (MA) (5.1) (Bluray) (Remux) (2004) [MAVERICK]<br>
Encoded date : UTC 2023-07-03 16:31:46<br>
Writing application : mkvmerge v78.0 ('Running') 64-bit<br>
Writing library : libebml v1.4.4 + libmatroska v1.7.1<br>
<br>
Video<br>
ID : 1<br>
Format : VC-1<br>
Format profile : Advanced@L3<br>
Codec ID : V_MS/VFW/FOURCC / WVC1<br>
Codec ID/Hint : Microsoft<br>
Duration : 48 min 26 s<br>
Bit rate : 18.3 Mb/s<br>
Width : 1920 pixels<br>
Height : 1080 pixels<br>
Display aspect ratio : 16:9<br>
Frame rate mode : Variable<br>
Frame rate : 23.976 (23976/1000) FPS<br>
Original frame rate : 23.976 (24000/1001) FPS<br>
Color space : YUV<br>
Chroma subsampling : 4:2:0<br>
Bit depth : 8 bits<br>
Scan type : Progressive<br>
Scan order : 2:3 Pulldown<br>
Compression mode : Lossy<br>
Bits/(Pixel*Frame) : 0.369<br>
Stream size : 6.20 GiB (89%)<br>
Title : IMAX: Fighter Pilot Operation Red Flag (1080p) (DTS-HD) (MA) (5.1) (Bluray) (Remux) (2004) [MAVERICK]<br>
Language : English<br>
Default : Yes<br>
Forced : Yes<br>
<br>
Audio<br>
ID : 2<br>
Format : DTS XLL<br>
Format/Info : Digital Theater Systems<br>
Commercial name : DTS-HD Master Audio<br>
Codec ID : A_DTS<br>
Duration : 48 min 26 s<br>
Bit rate mode : Variable<br>
Bit rate : 2 243 kb/s<br>
Channel(s) : 6 channels<br>
Channel layout : C L R Ls Rs LFE<br>
Sampling rate : 48.0 kHz<br>
Frame rate : 93.750 FPS (512 SPF)<br>
Bit depth : 16 bits<br>
Compression mode : Lossless<br>
Stream size : 777 MiB (11%)<br>
Title : DTS-HD MA<br>
Language : English<br>
Default : Yes<br>
Forced : Yes</div>
</div>
<div class="ToggleTriggerAnchor bbCodeSpoilerContainer">
<button type="button" class="button bbCodeSpoilerButton ToggleTrigger Tooltip JsOnly" data-target="> .SpoilerTarget"><span>Spoiler: <span class="SpoilerTitle">Download:</span></span></button>
<div class="SpoilerTarget bbCodeSpoilerText">
<div class="bbCodeBlock bbCodeVfcHH HiddenContent">
<div class="attribution type">Hidden Content:</div>
<blockquote>You must either reply or click 'Like' to see the hidden information contained here.</blockquote>
</div></div>
</div><div style="text-align: center"><b>Please Note This File Has Been uploaded to Gofile, because its free fast upload and download speeds Grab it while you can, Admin should reupload My files to google drive.<br>
<br>
<b><b>Please Credit Me Maverick if you are going to upload my files elsewhere!</b></b></b><br>
<br>
<b><b><b>New Content will only Be Uploaded from this Account <a href="https://sharemania.us/members/176676/" class="username" data-user="176676, @Maverick">@Maverick</a></b></b></b><br>
<br>
<b>Enjoy <img src="styles/default/xenforo/smilies/big_smile-48.png" class="mceSmilie" alt=":)" title="Smile    :)"></b>​</div>
<div class="messageTextEndMarker">&nbsp;</div>
</blockquote>
</article>]]></description>
                <author><![CDATA[Maverick]]></author>
                </item>

                </channel></rss>